<svg width="256" height="19" viewBox="0 0 256 19" fill="none" xmlns="http://www.w3.org/2000/svg">
<path d="M1.51611 1L13 12.5L24.4839 1L35.9677 12.5L47.4516 1L58.9355 12.5L70.4193 1L81.9032 12.5L93.3871 1L104.871 12.5L116.355 1L127.839 12.5L139.323 1L150.806 12.5L162.29 1L173.774 12.5L185.258 1L196.742 12.5L208.226 1L219.71 12.5L231.194 1L242.677 12.5L255.032 1" stroke="#348989"/>
<path d="M92.9032 17.5L104.387 6L115.871 17.5L127.355 6L138.839 17.5L150.323 6L161.806 17.5L173.29 6L184.774 17.5L196.258 6L207.742 17.5L219.226 6L230.71 17.5L242.194 6L254.532 17.5" stroke="#D31B51"/>
<path d="M1 17.5L12.4839 6L23.9677 17.5L35.4516 6L46.9355 17.5L58.4193 6L69.9032 17.5L81.3871 6L92.871 17.5L104.355 6L115.839 17.5L127.323 6L138.806 17.5L150.29 6L161.774 17.5L173.258 6L184.742 17.5L196.226 6L207.71 17.5L219.194 6L230.677 17.5L242.161 6" stroke="#D31B51"/>
</svg>
